<?xml version="1.0" encoding="UTF-8"?>
<svg id="Layer_2" xmlns="http://www.w3.org/2000/svg" viewBox="0 0 283.19 46.83">
  <defs>
    <style>
      .cls-1 {
        fill: #231f20;
      }

      .cls-2 {
        fill: #fff;
      }

      .cls-3 {
        opacity: 0;
      }
    </style>
  </defs>
  <g id="Layer_1-2" data-name="Layer_1">
    <g>
      <path class="cls-1" d="M21.5,39.97c-.59,2.54-3.56,6.86-9.94,6.86-6.75,0-11.56-5.62-11.56-12.75,0-7.99,5.08-13.18,11.78-13.18,6.27,0,10.59,4,10.59,12.48H5.08c.22,7.29,3.46,10.21,7.72,10.64,3.24.32,7.08-1.67,8.05-4.32l.65.27ZM17.72,32.68c0-7.89-3.51-11.07-6.1-11.07-3.08,0-6.54,4.27-6.54,11.07h12.64Z"/>
      <path class="cls-1" d="M50.67,39.7c-.59,2.7-3.35,7.13-9.99,7.13-6.05,0-11.78-4.97-11.78-12.91,0-6.64,4.86-13.02,13.13-13.02,5.29,0,6.91,2.43,7.4,3.29.43.76.54,1.78.05,2.65-.7,1.13-2.32,1.62-3.46.92-1.24-.7-1.62-2.27-.92-3.4.38-.65.97-1.08,1.51-1.13.49-.11-.97-1.62-4.59-1.62-2.16,0-8.1,1.62-8.1,11.72,0,7.18,4.05,10.16,7.89,10.53,3.94.32,7.29-2.21,8.26-4.43l.59.27Z"/>
      <path class="cls-1" d="M79.73,46.35h-9.02v-.65c2.05-.59,2.16-1.62,2.16-4.38v-11.51c0-3.89-1.84-6.16-5.62-6.16-2.7,0-4.7,2.48-5.56,4.32v13.34c0,2.97.27,3.83,2.21,4.32v.7h-9.13v-.7c2.05-.59,2.16-1.57,2.16-4.32V11.72c0-1.89-.49-2.54-2.7-2.92v-.7l7.45-1.62v20.53c.81-3.08,4.86-6.1,8.37-6.1,4.43,0,7.45,2.21,7.45,8.7v11.72c0,2.97.32,3.89,2.21,4.38v.65Z"/>
      <path class="cls-1" d="M99.07,42.19c-.76,2.38-3.19,4.65-6.32,4.65-3.94,0-6.32-1.73-6.32-8.26v-16.48h-2.75l-.11-.7h2.86v-7.67l4.7-.76v8.43h6.43l-.16.7h-6.27v16.31c0,4.32,1.57,5.78,4.11,5.78,1.57,0,2.86-1.13,3.29-2.27l.54.27Z"/>
    </g>
    <g class="cls-3">
      <polygon class="cls-1" points="259.7 14.52 283.19 0 283.05 .18 270.38 16.22 259.7 14.52"/>
      <g>
        <polygon class="cls-2" points="270.63 16.25 282.62 1.08 274.67 25.37 270.63 16.25"/>
        <path class="cls-1" d="M282.04,2.15l-7.4,22.62-3.76-8.49,11.16-14.13M283.19,0l-.14.18-12.67,16.04,4.32,9.74,8.5-25.96h0Z"/>
      </g>
    </g>
  </g>
</svg>