<?xml version="1.0" encoding="UTF-8"?>
<svg id="Layer_2" xmlns="http://www.w3.org/2000/svg" viewBox="0 0 283.19 46.83">
  <defs>
    <style>
      .cls-1, .cls-2 {
        fill: #231f20;
      }

      .cls-2 {
        opacity: 0;
      }

      .cls-3 {
        fill: #fff;
      }
    </style>
  </defs>
  <g id="Layer_1-2" data-name="Layer_1">
    <g>
      <path class="cls-2" d="M21.5,39.97c-.59,2.54-3.56,6.86-9.94,6.86-6.75,0-11.56-5.62-11.56-12.75,0-7.99,5.08-13.18,11.78-13.18,6.27,0,10.59,4,10.59,12.48H5.08c.22,7.29,3.46,10.21,7.72,10.64,3.24.32,7.08-1.67,8.05-4.32l.65.27ZM17.72,32.68c0-7.89-3.51-11.07-6.1-11.07-3.08,0-6.54,4.27-6.54,11.07h12.64Z"/>
      <path class="cls-2" d="M50.67,39.7c-.59,2.7-3.35,7.13-9.99,7.13-6.05,0-11.78-4.97-11.78-12.91,0-6.64,4.86-13.02,13.13-13.02,5.29,0,6.91,2.43,7.4,3.29.43.76.54,1.78.05,2.65-.7,1.13-2.32,1.62-3.46.92-1.24-.7-1.62-2.27-.92-3.4.38-.65.97-1.08,1.51-1.13.49-.11-.97-1.62-4.59-1.62-2.16,0-8.1,1.62-8.1,11.72,0,7.18,4.05,10.16,7.89,10.53,3.94.32,7.29-2.21,8.26-4.43l.59.27Z"/>
      <path class="cls-2" d="M79.73,46.35h-9.02v-.65c2.05-.59,2.16-1.62,2.16-4.38v-11.51c0-3.89-1.84-6.16-5.62-6.16-2.7,0-4.7,2.48-5.56,4.32v13.34c0,2.97.27,3.83,2.21,4.32v.7h-9.13v-.7c2.05-.59,2.16-1.57,2.16-4.32V11.72c0-1.89-.49-2.54-2.7-2.92v-.7l7.45-1.62v20.53c.81-3.08,4.86-6.1,8.37-6.1,4.43,0,7.45,2.21,7.45,8.7v11.72c0,2.97.32,3.89,2.21,4.38v.65Z"/>
      <path class="cls-2" d="M99.07,42.19c-.76,2.38-3.19,4.65-6.32,4.65-3.94,0-6.32-1.73-6.32-8.26v-16.48h-2.75l-.11-.7h2.86v-7.67l4.7-.76v8.43h6.43l-.16.7h-6.27v16.31c0,4.32,1.57,5.78,4.11,5.78,1.57,0,2.86-1.13,3.29-2.27l.54.27Z"/>
      <path class="cls-2" d="M129.32,21.39v.43c-2.86,0-3.78.05-6,5.51l-6.97,19.5h-.27c-9.56-20.74-10.48-22.42-10.48-22.42-1.35-2.54-2.97-2.48-3.83-2.59v-.43h9.67v.43c-4.16,0-2.32,3.46-2.32,3.46l8.1,17.77,5.29-14.96s2.43-6.27-3.51-6.27v-.43h10.32Z"/>
      <path class="cls-2" d="M150.98,40.08l.32.05c-.27,2.27-3.08,6.7-8.59,6.7-6.37,0-11.13-4.7-11.13-12.64,0-8.37,4.97-13.29,10.86-13.29,4.75,0,9.67,3.89,9.67,12.48h-17.34c0,9.24,3.78,12.37,8.64,12.37,3.62,0,6.91-2.86,7.56-5.67ZM149.41,32.84c0-8.91-4.81-11.45-6.97-11.45-3.03,0-7.67,3.08-7.67,11.45h14.64Z"/>
      <path class="cls-2" d="M180.15,45.92v.43h-7.02v-.43c2.05-.59,2.16-.27,2.16-3.02v-12.75c0-4.75-2.27-7.78-6.7-7.78-3.46,0-5.56,3.13-6.43,4.86v15.67c0,2.97.27,2.48,2.21,2.97v.49h-7.08v-.49c2.05-.59,2.16-.22,2.16-2.97v-17.93c0-1.89-.43-2.7-2.7-2.7v-.43l5.4-.92v5.51c1.03-2.97,4.27-5.51,7.67-5.51,4.54,0,8.1,2.54,8.1,9.02v12.96c0,2.97.32,2.54,2.21,3.02Z"/>
      <path class="cls-2" d="M197.33,42.68l.32.11c-.43,2.21-2.05,4.05-4.7,4.05-3.57,0-5.83-1.73-5.83-8.26v-16.69h-2.75l-.05-.49h2.81v-8.16l2.7-.32v8.48h6.37l-.11.49h-6.27v16.53c0,5.56,1.78,6.97,4.21,6.97,1.57,0,2.92-1.24,3.29-2.7Z"/>
      <path class="cls-2" d="M225.41,45.65v.43l-4.32.7c-1.19.27-1.13-.59-1.13-.59v-4.43c-.59,2.65-3.19,5.08-7.08,5.08-3.51,0-8.59-1.08-8.59-8.05v-12.75q0-3.73-3.03-3.73v-.43l5.62-.97v17.72c0,5.13,3.46,6.81,6.59,6.81,3.83,0,5.73-2.43,6.48-4.81v-14.96c0-3.29,0-3.35-2.54-3.35v-.43l5.24-.97v21.39c0,2.59.49,3.08,2.75,3.35Z"/>
      <path class="cls-2" d="M244.37,22.31c.43,1.08-.05,2.21-1.13,2.7-1.03.43-2.27-.05-2.75-1.13-.16-.49-.16-1.03,0-1.51.49-1.19-4.65.81-6.05,4.81v15.72c0,2.97.27,2.48,2.21,2.97v.49h-7.08v-.49c2.05-.59,2.16-.22,2.16-2.97v-17.99c0-1.89-.43-2.65-2.7-2.65v-.43l5.4-.92v5.19c1.13-2.81,5.08-5.51,8.16-5.13.76.11,1.4.59,1.78,1.35Z"/>
      <path class="cls-2" d="M268.84,40.08l.32.05c-.27,2.27-3.08,6.7-8.59,6.7-6.37,0-11.13-4.7-11.13-12.64,0-8.37,4.97-13.29,10.86-13.29,4.75,0,9.67,3.89,9.67,12.48h-17.34c0,9.24,3.78,12.37,8.64,12.37,3.62,0,6.91-2.86,7.56-5.67ZM267.28,32.84c0-8.91-4.81-11.45-6.97-11.45-3.02,0-7.67,3.08-7.67,11.45h14.64Z"/>
      <path class="cls-2" d="M278.84,46.62c-1.03,0-1.78-.81-1.78-1.78,0-1.08.76-1.89,1.78-1.89.97,0,1.84.81,1.84,1.89,0,.97-.86,1.78-1.84,1.78Z"/>
    </g>
    <g>
      <polygon class="cls-1" points="259.7 14.52 283.19 0 283.05 .18 270.38 16.22 259.7 14.52"/>
      <g>
        <polygon class="cls-3" points="270.63 16.25 282.62 1.08 274.67 25.37 270.63 16.25"/>
        <path class="cls-1" d="M282.04,2.15l-7.4,22.62-3.76-8.49,11.16-14.13M283.19,0l-.14.18-12.67,16.04,4.32,9.74,8.5-25.96h0Z"/>
      </g>
    </g>
  </g>
</svg>