<?xml version="1.0" standalone="no"?>
<!DOCTYPE svg PUBLIC "-//W3C//DTD SVG 20010904//EN"
 "http://www.w3.org/TR/2001/REC-SVG-20010904/DTD/svg10.dtd">
<svg version="1.0" xmlns="http://www.w3.org/2000/svg"
 width="300.000000pt" height="92.000000pt" viewBox="0 0 300.000000 92.000000"
 preserveAspectRatio="xMidYMid meet">
<metadata>
Created by potrace 1.10, written by Peter Selinger 2001-2011
</metadata>
<g transform="translate(0.000000,92.000000) scale(0.100000,-0.100000)"
fill="#ffffff" stroke="none">
<path d="M2110 839 c-282 -36 -540 -88 -540 -109 0 -5 19 -14 43 -21 152 -40
192 -133 132 -308 -20 -59 -22 -73 -10 -77 16 -7 35 3 35 17 0 6 -4 7 -10 4
-5 -3 -10 -3 -10 0 0 23 62 174 119 290 37 75 64 138 60 141 -4 2 -11 -2 -17
-9 -12 -14 -84 -162 -102 -209 l-13 -33 -7 40 c-3 22 -11 50 -18 61 -18 34
-78 82 -111 89 -17 4 -31 10 -31 14 0 18 419 87 594 98 104 6 121 2 94 -25
-15 -15 -3 -16 23 -2 23 13 25 36 3 44 -21 8 -154 5 -234 -5z"/>
<path d="M1000 749 c-99 -90 -341 -251 -327 -218 3 8 22 50 41 94 66 151 45
195 -54 113 -69 -57 -118 -124 -102 -140 9 -9 12 -8 12 4 0 34 149 173 166
155 7 -6 -70 -201 -92 -234 -8 -13 -21 -23 -29 -23 -19 0 -29 -18 -16 -33 14
-18 -42 -105 -77 -119 -15 -6 -121 -14 -237 -18 -205 -6 -245 -12 -245 -32 0
-6 7 -7 18 -2 9 5 114 11 232 15 140 4 226 10 245 19 18 7 42 32 60 61 16 27
33 49 37 49 5 0 32 -13 61 -30 77 -43 159 -62 211 -48 22 6 63 10 89 10 31 -1
62 5 88 18 34 18 40 19 45 5 11 -28 61 -18 103 21 l40 35 3 -33 c2 -26 8 -34
26 -36 13 -2 30 2 38 9 13 10 17 10 23 0 6 -9 22 2 56 38 27 28 52 51 57 51 4
0 8 -15 8 -34 0 -41 21 -60 54 -52 32 8 83 52 73 62 -4 4 -17 -2 -30 -14 -12
-12 -34 -23 -47 -24 -22 -3 -26 2 -30 37 -7 53 -28 55 -75 8 -42 -42 -35 -23
20 54 23 32 37 43 60 44 24 1 25 3 8 6 -28 5 -28 7 -4 47 28 47 45 106 33 118
-14 14 -47 -25 -84 -99 -30 -61 -32 -63 -69 -63 -22 0 -39 2 -39 5 0 3 9 23
20 45 40 79 17 84 -25 5 -26 -48 -34 -54 -64 -57 -19 -2 -36 -9 -39 -17 -3
-10 3 -12 27 -6 38 8 39 -1 2 -51 -37 -52 -88 -94 -112 -94 -25 0 -24 14 2 57
24 38 16 61 -9 25 -26 -40 -102 -92 -133 -92 l-29 0 40 37 c42 38 51 75 19 81
-24 4 -77 -44 -84 -79 -9 -39 -42 -52 -120 -46 -67 5 -209 68 -202 90 2 7 40
32 86 57 142 79 353 243 334 260 -4 5 -33 -14 -63 -41z m520 -74 c-14 -36 -61
-108 -67 -102 -6 7 59 127 69 127 4 0 3 -11 -2 -25z m-121 -172 c-26 -60 -67
-105 -94 -101 -29 4 -30 31 -1 93 25 55 25 55 70 55 l45 0 -20 -47z m-363 -44
c-17 -26 -56 -54 -56 -41 0 17 41 62 56 62 13 0 13 -3 0 -21z"/>
<path d="M2205 521 c-8 -25 -71 -81 -90 -81 -19 0 -19 30 0 57 10 15 12 24 4
28 -5 4 -11 5 -13 4 -1 -2 -10 -17 -20 -32 -18 -29 -71 -67 -95 -67 -14 0 -12
36 4 74 7 16 5 18 -8 13 -9 -3 -17 -2 -17 3 0 20 -49 9 -80 -17 -39 -32 -55
-70 -39 -89 14 -18 45 -10 77 19 l22 21 16 -22 c19 -27 37 -28 79 -2 28 17 34
18 39 5 8 -21 43 -19 77 6 16 11 29 18 29 16 0 -15 -32 -77 -40 -77 -5 0 -36
-25 -69 -56 -66 -61 -115 -145 -109 -190 4 -33 31 -53 54 -39 24 15 80 110
118 200 33 79 35 81 97 112 89 45 165 55 360 45 201 -11 349 1 349 28 0 4 -19
3 -42 -2 -26 -6 -132 -8 -271 -4 -242 6 -292 1 -387 -37 l-59 -24 21 51 c11
28 22 57 25 64 3 6 -2 12 -10 12 -9 0 -18 -9 -22 -19z m-248 -27 c0 -16 -76
-78 -85 -70 -12 12 11 57 36 70 35 20 49 20 49 0z m165 -201 c-74 -156 -131
-222 -124 -145 1 19 10 48 18 65 18 34 112 137 125 137 5 0 -4 -26 -19 -57z"/>
</g>
</svg>
